<?xml version="1.0" encoding="utf-8"?>
<!-- Generator: Adobe Illustrator 25.1.0, SVG Export Plug-In . SVG Version: 6.00 Build 0)  -->
<svg version="1.1" id="Capa_1" xmlns="http://www.w3.org/2000/svg" xmlns:xlink="http://www.w3.org/1999/xlink" x="0px" y="0px"
	 viewBox="0 0 705.3 259.7" style="enable-background:new 0 0 705.3 259.7;" xml:space="preserve">
<style type="text/css">
	.st0{fill:#578E44;}
	.st1{fill:none;stroke:#5F4118;stroke-width:12;stroke-linecap:round;stroke-miterlimit:10;}
	.st2{clip-path:url(#SVGID_2_);}
	.st3{font-family:'Roboto-Bold';}
	.st4{font-size:60px;}
</style>
<path class="st0" d="M176,140.9c0,28,22.8,50.7,50.8,50.7c28.1,0,50.8-22.7,50.8-50.7c0-28-22.8-50.7-50.8-50.7
	C198.8,90.2,176,112.9,176,140.9z"/>
<path class="st0" d="M5.7,140.9c0,28,22.8,50.7,50.8,50.7c28.1,0,50.8-22.7,50.8-50.7c0-28-22.8-50.7-50.8-50.7
	C28.4,90.2,5.7,112.9,5.7,140.9z"/>
<path class="st0" d="M84.5,63.9c0,31.5,25.6,57,57.2,57c31.6,0,57.2-25.5,57.2-57c0-31.5-25.6-57.1-57.2-57.1
	C110.1,6.9,84.5,32.4,84.5,63.9z"/>
<path class="st1" d="M141.7,237.9V76.3"/>
<g>
	<defs>
		<rect id="SVGID_1_" width="285.8" height="249.8"/>
	</defs>
	<clipPath id="SVGID_2_">
		<use xlink:href="#SVGID_1_"  style="overflow:visible;"/>
	</clipPath>
	<g class="st2">
		<path class="st1" d="M141.7,209.5l68.7-68.5"/>
		<path class="st1" d="M141.7,209.5L73,140.9"/>
	</g>
</g>
<text transform="matrix(1 0 0 1 176.0117 243.4629)" class="st0 st3 st4">els ulls de la natura</text>
</svg>
